<?xml version="1.0" encoding="UTF-8" standalone="no"?>
<!-- Created with Inkscape (http://www.inkscape.org/) -->

<svg
   version="1.1"
   id="svg2"
   xml:space="preserve"
   width="666.66663"
   height="666.66663"
   viewBox="0 0 666.66663 666.66663"
   sodipodi:docname="2ccb3889b1930f447c8d0a1669975c3f.eps"
   xmlns:inkscape="http://www.inkscape.org/namespaces/inkscape"
   xmlns:sodipodi="http://sodipodi.sourceforge.net/DTD/sodipodi-0.dtd"
   xmlns="http://www.w3.org/2000/svg"
   xmlns:svg="http://www.w3.org/2000/svg"><defs
     id="defs6" /><sodipodi:namedview
     id="namedview4"
     pagecolor="#ffffff"
     bordercolor="#666666"
     borderopacity="1.0"
     inkscape:pageshadow="2"
     inkscape:pageopacity="0.0"
     inkscape:pagecheckerboard="0" /><g
     id="g8"
     inkscape:groupmode="layer"
     inkscape:label="ink_ext_XXXXXX"
     transform="matrix(1.3333333,0,0,-1.3333333,0,666.66665)"><g
       id="g10"
       transform="scale(0.1)"><path
         d="M 0,0 H 5000 V 5000 H 0 Z"
         style="fill:transparent;fill-opacity:1;fill-rule:nonzero;stroke:none"
         id="path12" /><path
         d="m 884.27,1403.91 c 0,0 -240.965,324.03 -157.805,755.99 88.894,461.76 664.895,524.89 949.425,970.36 284.54,445.47 760.65,616.99 1255.68,535.91 608.32,-99.63 679.57,-922.16 898.85,-1137.86 219.27,-215.71 592.12,-769.98 158.4,-1124.4 H 884.27"
         style="fill:#d0d7e0;fill-opacity:1;fill-rule:nonzero;stroke:none"
         id="path14" /><path
         d="M 3975.1,1398.9 H 894.496 c -4.144,0 -8.031,2 -10.449,5.36 l -3.34,4.64 H 3994.86 l -6.79,-5.44 c -3.68,-2.95 -8.26,-4.56 -12.97,-4.56"
         style="fill:#98a1a3;fill-opacity:1;fill-rule:nonzero;stroke:none"
         id="path16" /><path
         d="M 2287.58,3600.76 H 703.434 c -27.618,0 -50,-22.38 -50,-50 V 1218.19 c 0,-27.61 22.382,-50 50,-50 H 2287.58 c 27.61,0 50,22.39 50,50 v 2332.57 c 0,27.62 -22.39,50 -50,50"
         style="fill:#ededeb;fill-opacity:1;fill-rule:nonzero;stroke:none"
         id="path18" /><path
         d="M 1672.97,1830.21 H 740.531 v 1355.7 h 932.439 v -1355.7"
         style="fill:#ffffff;fill-opacity:1;fill-rule:nonzero;stroke:none"
         id="path20" /><path
         d="M 2287.58,3600.76 H 703.434 c -27.618,0 -50,-22.38 -50,-50 v -287.7 H 2337.58 v 287.7 c 0,27.62 -22.39,50 -50,50"
         style="fill:#5d87cd;fill-opacity:1;fill-rule:nonzero;stroke:none"
         id="path22" /><g
         id="g24"
         transform="scale(10)"><text
           transform="matrix(1,0,0,-1,83.9828,289.968)"
           style="font-variant:normal;font-weight:bold;font-size:26.0768px;font-family:Kanit;-inkscape-font-specification:Kanit-Bold;writing-mode:lr-tb;fill:#5d87cd;fill-opacity:1;fill-rule:nonzero;stroke:none"
           id="text28"><tspan
             x="0"
             y="0"
             id="tspan26">T</tspan></text></g><path
         d="m 1574.68,3024.33 h -550.45 v 28.02 h 550.45 v -28.02"
         style="fill:#33535f;fill-opacity:1;fill-rule:nonzero;stroke:none"
         id="path30" /><path
         d="m 1395.04,2966.8 h -370.81 v 28.01 h 370.81 v -28.01"
         style="fill:#33535f;fill-opacity:1;fill-rule:nonzero;stroke:none"
         id="path32" /><path
         d="m 1574.68,2906.47 h -550.45 v 28.02 h 550.45 v -28.02"
         style="fill:#33535f;fill-opacity:1;fill-rule:nonzero;stroke:none"
         id="path34" /><path
         d="M 1574.68,2845.91 H 838.828 v 28.03 h 735.852 v -28.03"
         style="fill:#33535f;fill-opacity:1;fill-rule:nonzero;stroke:none"
         id="path36" /><path
         d="M 1466.55,2786.29 H 838.828 v 28.03 h 627.722 v -28.03"
         style="fill:#33535f;fill-opacity:1;fill-rule:nonzero;stroke:none"
         id="path38" /><path
         d="M 1525.69,2726.67 H 838.828 v 28.03 h 686.862 v -28.03"
         style="fill:#33535f;fill-opacity:1;fill-rule:nonzero;stroke:none"
         id="path40" /><path
         d="M 1574.68,2299.32 H 838.828 v 28.02 h 735.852 v -28.02"
         style="fill:#33535f;fill-opacity:1;fill-rule:nonzero;stroke:none"
         id="path42" /><path
         d="M 1466.55,2239.7 H 838.828 v 28.02 h 627.722 v -28.02"
         style="fill:#33535f;fill-opacity:1;fill-rule:nonzero;stroke:none"
         id="path44" /><path
         d="M 1525.69,2180.08 H 838.828 v 28.03 h 686.862 v -28.03"
         style="fill:#33535f;fill-opacity:1;fill-rule:nonzero;stroke:none"
         id="path46" /><path
         d="M 1466.55,2063.39 H 838.828 v 28.03 h 627.722 v -28.03"
         style="fill:#33535f;fill-opacity:1;fill-rule:nonzero;stroke:none"
         id="path48" /><path
         d="M 1525.69,2003.77 H 838.828 v 28.03 h 686.862 v -28.03"
         style="fill:#33535f;fill-opacity:1;fill-rule:nonzero;stroke:none"
         id="path50" /><path
         d="M 1574.68,2373.92 H 839.758 v 311.32 h 734.922 v -311.32"
         style="fill:#5d87cd;fill-opacity:1;fill-rule:nonzero;stroke:none"
         id="path52" /><path
         d="m 2270.8,3052.35 h -537.73 v 133.56 h 537.73 v -133.56"
         style="fill:#5d87cd;fill-opacity:1;fill-rule:nonzero;stroke:none"
         id="path54" /><path
         d="m 2270.8,2057.36 h -537.73 v 133.57 h 537.73 v -133.57"
         style="fill:#5d87cd;fill-opacity:1;fill-rule:nonzero;stroke:none"
         id="path56" /><path
         d="M 2270.8,1640.8 H 740.531 v 133.57 H 2270.8 V 1640.8"
         style="fill:#5d87cd;fill-opacity:1;fill-rule:nonzero;stroke:none"
         id="path58" /><path
         d="m 2270.8,2229.7 h -537.73 v 793.87 H 2270.8 V 2229.7"
         style="fill:#a4a6a5;fill-opacity:1;fill-rule:nonzero;stroke:none"
         id="path60" /><path
         d="M 2181.77,1276.71 H 829.563 c -49.168,0 -89.032,39.86 -89.032,89.03 V 1640.8 H 2270.8 v -275.06 c 0,-49.17 -39.86,-89.03 -89.03,-89.03"
         style="fill:#a4a6a5;fill-opacity:1;fill-rule:nonzero;stroke:none"
         id="path62" /><g
         id="g64"
         transform="scale(10)"><text
           transform="matrix(1,0,0,-1,78.4195,337.604)"
           style="font-variant:normal;font-weight:bold;font-size:14.306px;font-family:Kanit;-inkscape-font-specification:Kanit-Bold;writing-mode:lr-tb;fill:#ffffff;fill-opacity:1;fill-rule:nonzero;stroke:none"
           id="text68"><tspan
             x="0 9.2558603 16.666498 26.794895"
             y="0"
             sodipodi:role="line"
             id="tspan66">BLOG</tspan></text></g><path
         d="m 4234.83,2698.69 v 26.95 c 12.11,2.59 34.87,8.76 31.95,18.1 -3.97,12.63 -31.67,9.28 -31.67,9.28 0,0 36.31,4.11 31.17,19.19 -3.62,10.6 -21.28,12.72 -31.45,13.05 v 3.43 c 24.64,4.28 32.14,19.28 27.87,29.99 -4.29,10.72 -27.87,8.58 -27.87,8.58 0,0 -30,-122.14 -30,-125.36 0,-3.21 17.15,-43.92 30,-41.78 12.87,2.15 39.64,19.29 29,34.28 -10.65,15 -29,4.29 -29,4.29"
         style="fill:#f47355;fill-opacity:1;fill-rule:nonzero;stroke:none"
         id="path70" /><path
         d="m 4077.67,2562.17 c -0.07,-3.45 2.71,-6.29 6.17,-6.29 h 139.83 c 7.77,0 14.11,6.2 14.3,13.97 l 3.15,347.26 c 0.07,6.87 -3.34,13.3 -9.05,17.11 -1.19,0.79 -2.63,1.15 -4.06,1 l -137.74,-14.28 c -3.1,-0.32 -5.48,-2.9 -5.53,-6.02 l -7.07,-352.75"
         style="fill:#33535f;fill-opacity:1;fill-rule:nonzero;stroke:none"
         id="path72" /><path
         d="m 4208.64,2902.39 v -313.65 c 0,-3.52 -2.85,-6.38 -6.37,-6.38 l -98.43,1.27 c -3.53,0 -6.38,2.86 -6.38,6.38 l 3.18,304.77 c 0,3.25 2.47,5.99 5.7,6.34 l 95.24,7.62 c 3.77,0.41 7.06,-2.55 7.06,-6.35"
         style="fill:#8dbae7;fill-opacity:1;fill-rule:nonzero;stroke:none"
         id="path74" /><path
         d="m 4232.07,2934.22 c -1.19,0.8 -2.63,1.15 -4.06,1 l -1.31,-0.13 -3.97,-379.21 h 0.94 c 7.77,0 14.11,6.2 14.3,13.97 l 3.15,347.26 c 0.07,6.87 -3.34,13.3 -9.05,17.11"
         style="fill:#17282f;fill-opacity:1;fill-rule:nonzero;stroke:none"
         id="path76" /><path
         d="m 4108.39,2911.81 c 0,-2.72 -1.77,-4.92 -3.95,-4.92 -2.16,0 -3.93,2.2 -3.93,4.92 0,2.72 1.77,4.92 3.93,4.92 2.18,0 3.95,-2.2 3.95,-4.92"
         style="fill:#17282f;fill-opacity:1;fill-rule:nonzero;stroke:none"
         id="path78" /><path
         d="m 4125.62,2910.21 c -1.94,0 -3.58,1.48 -3.74,3.45 -0.17,2.06 1.36,3.87 3.42,4.04 l 55.1,4.57 c 2.23,0.15 3.88,-1.37 4.05,-3.43 0.17,-2.06 -1.36,-3.87 -3.42,-4.05 l -55.1,-4.56 -0.31,-0.02"
         style="fill:#17282f;fill-opacity:1;fill-rule:nonzero;stroke:none"
         id="path80" /><path
         d="m 4108.26,2555.92 c 16.79,32.6 11.39,65.13 11.95,81.54 0.6,17.11 31.62,54.35 35.65,89.58 4.02,35.23 -17.12,50.32 -29.19,27.17 -12.08,-23.15 -44.3,-61.39 -44.3,-61.39 v 104.68 c 0,0 -9.72,-10.96 -17.77,-17 -8.06,-6.04 -44.85,-40.64 -43.82,-91.72 1.04,-51.07 -9.87,-151.98 -18.92,-179.16 -9.07,-27.18 -25.17,-46.3 -25.17,-46.3 l 89.83,-44.29 c 0,0 39.01,18.12 53.69,31.2 14.69,13.09 21.56,66.44 21.56,66.44 l 14.59,39.25 h -48.1"
         style="fill:#f8a58d;fill-opacity:1;fill-rule:nonzero;stroke:none"
         id="path82" /><path
         d="m 4156.36,2555.92 h -48.1 l 40.41,-20.68 z"
         style="fill:#f47355;fill-opacity:1;fill-rule:nonzero;stroke:none"
         id="path84" /><path
         d="m 4059.15,2634.92 c -1.52,10.87 0.64,21.71 4.42,31.81 3.93,10.01 9.97,19.59 18.8,26.09 -4.09,-10.11 -8.22,-19.18 -11.8,-28.8 -3.79,-9.51 -7.1,-19.13 -11.42,-29.1"
         style="fill:#f47355;fill-opacity:1;fill-rule:nonzero;stroke:none"
         id="path86" /><path
         d="m 4120.52,2620.11 c 5.44,-18.1 2.88,-37.93 -3.27,-55.72 -3.46,-8.81 -7.44,-17.49 -12.96,-25.17 -5.18,-7.88 -11.71,-14.76 -18.68,-20.93 4.76,8.07 9.51,15.87 13.66,23.94 4.3,7.98 7.76,16.31 10.93,24.7 3.11,8.43 5.4,17.12 7.21,25.96 1.66,8.87 3.02,17.89 3.11,27.22"
         style="fill:#f47355;fill-opacity:1;fill-rule:nonzero;stroke:none"
         id="path88" /><path
         d="m 4104.45,2413.05 -112.26,60.89 c -7.5,4.07 -16.86,1.77 -21.62,-5.31 l -159.64,-237.02 c -13.67,-21.32 -19.98,-24.06 -41.15,-10.17 l -164.3,83.63 c -100.05,46.38 -166.92,91.91 -264.41,91.88 l -117.22,-0.03 c 0,0 -5.25,0.18 -14.65,0 -191.73,-3.55 -359.58,-129.82 -418.49,-312.31 l -206.78,-640.7 h 178.38 l 217.39,621.06 -5.88,-621.06 h 516.69 v 671.3 l 133.78,-58.81 c 84.23,-43.94 217.58,-96.71 290.23,30.62 3.16,5.53 6.28,11.07 9.75,16.4 l 186.16,286.05 c 5.27,8.1 2.52,18.98 -5.98,23.58"
         style="fill:#3563b7;fill-opacity:1;fill-rule:nonzero;stroke:none"
         id="path90" /><path
         d="m 3069.74,2578.75 v -215.68 h 0.31 c 3.29,-82.26 70.83,-147.99 153.91,-147.99 83.06,0 150.6,65.73 153.89,147.99 h 0.32 v 215.68 h -308.43"
         style="fill:#f68260;fill-opacity:1;fill-rule:nonzero;stroke:none"
         id="path92" /><path
         d="m 2860.82,2816.19 c 0,0 -64.39,69.31 -64.39,253.96 0,184.64 158.84,309.96 304.77,321.88 145.93,11.91 169.75,68.49 202.51,41.69 32.75,-26.81 -63.64,-86.37 -63.64,-86.37 0,0 275.09,104.24 307.84,68.5 32.76,-35.74 -107.21,-86.36 -107.21,-86.36 0,0 167.62,-42.77 197.41,-132.11 29.77,-89.34 -48.5,-92.32 -48.5,-92.32 0,0 55.25,-142.71 -14.05,-336.52 -75.44,-210.99 -551.89,-234.33 -560.82,-228.37 -8.94,5.96 -153.92,276.02 -153.92,276.02"
         style="fill:#17282f;fill-opacity:1;fill-rule:nonzero;stroke:none"
         id="path94" /><path
         d="m 3540.53,2859.86 -0.77,-0.05 c -0.53,-9.59 -0.95,-15.55 -0.95,-15.55 l -12.48,-100.27 c -1.81,-14.5 -21.24,-18.25 -28.11,-5.35 -16.91,31.74 -32.8,89.18 -9.13,178.94 -13.42,21.69 -23.34,45.53 -29,70.73 l -3.43,15.22 c -67.53,-17.49 -70.71,-0.29 -115.66,20.09 l -0.48,-0.48 c 16.79,-15.07 62.22,-60.57 29.75,-85.74 -35.8,-27.76 -151.89,66.34 -174.57,82.12 -0.91,0.63 -2.08,-0.27 -1.7,-1.31 5.3,-14.21 21.67,-63.52 -2.12,-71.91 -36.49,-12.85 -103.22,88.02 -122.18,118.18 -1.01,1.6 -3.47,0.64 -3.12,-1.22 3.66,-19.9 8.83,-64.77 -16.26,-75.75 -23.48,-10.27 -49.09,38.86 -61.49,66.9 -2,4.53 -8.57,3.4 -9.14,-1.52 -5.06,-42.6 -20.43,-83.5 -36.41,-116.52 31.25,-100.63 14.34,-163.83 -3.72,-197.73 -6.86,-12.9 -26.3,-9.15 -28.1,5.35 l -12.49,100.27 c 0,0 -0.42,5.94 -0.94,15.51 -63.67,-0.86 -115.05,-52.67 -115.05,-116.55 0,-64.42 52.22,-116.64 116.64,-116.64 1.43,0 2.82,0.16 4.25,0.22 26.27,-150.74 157.62,-275.35 315.88,-275.35 158.25,0 289.64,124.62 315.89,275.38 1.64,-0.07 3.24,-0.25 4.89,-0.25 64.41,0 116.63,52.22 116.63,116.64 0,64.42 -52.22,116.64 -116.63,116.64"
         style="fill:#f8a58d;fill-opacity:1;fill-rule:nonzero;stroke:none"
         id="path96" /><path
         d="m 3113.95,2594.57 c 19.27,-18.12 38.81,-34.12 60.95,-45.01 10.89,-5.8 22.67,-9.3 34.75,-11.81 12.2,-2.85 24.75,-2.4 38.18,-2.7 -12,-5.39 -25.59,-9.17 -39.35,-8.19 -13.71,0.43 -27.51,3.89 -39.79,10.12 -12.24,6.25 -23.39,14.42 -32.66,24.25 -9.26,9.78 -17.19,20.86 -22.08,33.34"
         style="fill:#17282f;fill-opacity:1;fill-rule:nonzero;stroke:none"
         id="path98" /><path
         d="m 3078.51,2776.61 c 0,-15.08 -12.23,-27.31 -27.31,-27.31 -15.09,0 -27.3,12.23 -27.3,27.31 0,15.08 12.21,27.31 27.3,27.31 15.08,0 27.31,-12.23 27.31,-27.31"
         style="fill:#17282f;fill-opacity:1;fill-rule:nonzero;stroke:none"
         id="path100" /><path
         d="m 3024.02,2803.92 c -1.22,11.54 6.09,23.25 15.99,30.42 10.14,7.09 22.34,10.06 33.87,10.52 5.7,0.48 12.18,-0.27 18.17,-1.73 6.02,-1.81 11.83,-4.51 16.73,-8.41 9.69,-7.87 15.76,-19.3 15.65,-30.8 -7.47,8.46 -15.47,14.41 -23.66,18.06 -8.38,3.47 -16.69,4.65 -26.23,4.25 -9.65,-0.24 -18.91,-1.35 -27.54,-4.45 -8.51,-3.16 -16.73,-8.53 -22.98,-17.86"
         style="fill:#17282f;fill-opacity:1;fill-rule:nonzero;stroke:none"
         id="path102" /><path
         d="m 3010.17,2868.79 c 18.2,3.32 54.7,8.28 106.09,7.1 6.15,-0.14 10.22,4.82 7.1,8.74 -7.88,9.84 -25.36,23.82 -60.39,21.53 -39.6,-2.58 -55.54,-18.29 -61.89,-29.27 -2.57,-4.48 2.69,-9.26 9.09,-8.1"
         style="fill:#17282f;fill-opacity:1;fill-rule:nonzero;stroke:none"
         id="path104" /><path
         d="m 3310.99,2776.61 c 0,-15.08 12.22,-27.31 27.3,-27.31 15.09,0 27.32,12.23 27.32,27.31 0,15.08 -12.23,27.31 -27.32,27.31 -15.08,0 -27.3,-12.23 -27.3,-27.31"
         style="fill:#17282f;fill-opacity:1;fill-rule:nonzero;stroke:none"
         id="path106" /><path
         d="m 3411.53,2803.92 c 1.21,11.54 -6.08,23.25 -15.98,30.42 -10.14,7.09 -22.35,10.06 -33.87,10.52 -5.7,0.48 -12.19,-0.27 -18.17,-1.73 -6.03,-1.81 -11.84,-4.51 -16.73,-8.41 -9.69,-7.87 -15.77,-19.3 -15.66,-30.8 7.47,8.46 15.48,14.41 23.67,18.06 8.37,3.47 16.68,4.65 26.23,4.25 9.64,-0.24 18.91,-1.35 27.53,-4.45 8.52,-3.16 16.73,-8.53 22.98,-17.86"
         style="fill:#17282f;fill-opacity:1;fill-rule:nonzero;stroke:none"
         id="path108" /><path
         d="m 3413.65,2868.79 c -18.2,3.32 -54.7,8.28 -106.1,7.1 -6.14,-0.14 -10.22,4.82 -7.09,8.74 7.87,9.84 25.36,23.82 60.39,21.53 39.6,-2.58 55.54,-18.29 61.87,-29.27 2.59,-4.48 -2.67,-9.26 -9.07,-8.1"
         style="fill:#17282f;fill-opacity:1;fill-rule:nonzero;stroke:none"
         id="path110" /><path
         d="m 3226.67,2797.33 c 9.69,-20.54 18.06,-41.5 25.97,-62.62 7.99,-21.09 15.2,-42.43 22.26,-63.83 l 5.05,-16.12 c 2.13,-6.38 2.34,-14.05 0.13,-20.68 -4.29,-13.43 -17.79,-23.18 -31.54,-22.49 -22.68,0.98 -45.09,2.54 -67.65,5.45 22.49,2.94 45.13,4.43 67.5,5.5 8.99,0.67 16.87,7.08 18.98,15.45 1.04,4.15 1.05,8.26 -0.48,12.55 l -5.34,16.03 c -6.79,21.48 -13.43,43 -19.29,64.78 -5.95,21.75 -11.43,43.65 -15.59,65.98"
         style="fill:#17282f;fill-opacity:1;fill-rule:nonzero;stroke:none"
         id="path112" /><path
         d="m 2871.88,2812.65 c -15.35,-6.26 -28.82,-16.25 -38.06,-28.91 -9.47,-12.59 -13.32,-28.31 -13.34,-43.94 -0.29,-15.78 3.77,-31.44 12.65,-44.24 9.05,-12.7 22.96,-22.27 38.75,-27.3 -16.53,1.43 -33.25,9.24 -44.51,22.81 -11.36,13.5 -16.45,31.54 -16.25,48.73 0.13,17.21 5.16,35.41 17.01,48.47 11.33,13.31 27.38,21.6 43.75,24.38"
         style="fill:#f47355;fill-opacity:1;fill-rule:nonzero;stroke:none"
         id="path114" /><path
         d="m 3563.53,2668.26 c 15.35,6.25 28.81,16.24 38.05,28.9 9.47,12.59 13.32,28.31 13.34,43.94 0.3,15.78 -3.77,31.43 -12.65,44.25 -9.04,12.7 -22.95,22.26 -38.74,27.3 16.53,-1.44 33.24,-9.25 44.5,-22.82 11.36,-13.49 16.45,-31.54 16.25,-48.73 -0.12,-17.21 -5.15,-35.4 -17,-48.47 -11.34,-13.31 -27.38,-21.6 -43.75,-24.37"
         style="fill:#f47355;fill-opacity:1;fill-rule:nonzero;stroke:none"
         id="path116" /><path
         d="m 3210.79,3008.43 c 16.08,-10.77 32.04,-21.54 48.66,-31.19 16.44,-9.89 33.25,-19.12 50.46,-26.79 8.63,-3.76 17.43,-7.01 26.21,-9.28 8.72,-2.22 17.78,-3.05 24.86,-0.98 3.34,1.28 6.29,2.82 8.32,5.54 2.08,2.87 3.63,5.86 3.8,9.38 0.73,7.05 -2.23,15.54 -6.37,23.37 -8.25,15.97 -20.53,30.69 -33.19,44.68 -12.61,14.19 -26.45,27.41 -40.29,40.66 -28.04,26.14 -57.02,51.53 -86.59,76.45 33,-20.21 64.65,-42.69 94.37,-67.7 14.97,-12.39 29.25,-25.65 42.91,-39.73 13.43,-14.27 26.36,-29.3 36.13,-47.53 4.53,-9.16 8.79,-19.56 7.57,-31.88 -0.49,-6.15 -3.41,-12.19 -7.15,-16.88 -3.93,-5.01 -9.81,-8.26 -15.55,-9.96 -11.71,-2.84 -22.47,-0.81 -32.24,1.93 -9.83,2.84 -18.98,6.89 -27.77,11.39 -35.03,18.16 -65.7,42.31 -94.14,68.52"
         style="fill:#33535f;fill-opacity:1;fill-rule:nonzero;stroke:none"
         id="path118" /><path
         d="m 3338,3028.81 c 12.49,-7.63 25.15,-13.68 38.2,-17.92 13.05,-4.06 26.35,-6.81 39.76,-6.54 3.34,-0.42 6.69,0.25 10.04,0.31 3.36,0.09 6.7,0.45 10.01,1.14 3.33,0.55 6.7,0.95 10.04,1.61 3.27,0.98 6.58,1.84 9.94,2.65 3.4,0.66 6.65,1.88 9.9,3.12 l 9.97,3.47 c 6.6,2.57 12.98,5.74 20.04,8.17 -5.14,-5.15 -10.64,-10.11 -16.51,-14.64 -6.31,-3.73 -12.29,-8.5 -19.36,-11.1 -13.52,-6.76 -28.95,-9.37 -44.21,-9.72 -15.37,0.02 -30.64,3.93 -44.11,10.77 -13.46,6.76 -25.44,16.46 -33.71,28.68"
         style="fill:#33535f;fill-opacity:1;fill-rule:nonzero;stroke:none"
         id="path120" /><path
         d="m 3142.3,3096.25 c 11.05,-8.65 20.53,-18.85 29.15,-29.72 8.7,-10.83 16.2,-22.6 22.74,-35.02 6.2,-12.57 11.59,-25.87 13.68,-40.25 1.12,-7.12 1.32,-14.55 0,-21.82 -1.41,-7.19 -4.45,-14.32 -9.69,-19.11 4.79,13.27 2.09,26.06 -1.72,38.34 -4.04,12.27 -9.53,24.25 -15.62,36.02 -12.01,23.74 -26.06,46.64 -38.54,71.56"
         style="fill:#33535f;fill-opacity:1;fill-rule:nonzero;stroke:none"
         id="path122" /><path
         d="m 3334.01,3342.41 c 11.96,1.62 24.05,1.47 36.12,1.38 12.05,-0.65 24.1,-1.7 36.07,-3.39 23.96,-3.35 47.61,-9.13 70.46,-17.19 22.75,-8.25 45.15,-17.83 65.81,-30.46 10.58,-5.87 20.43,-12.9 30.39,-19.67 9.74,-7.11 18.91,-14.99 28.03,-22.76 -20.54,12.56 -40.64,25.34 -62.09,35.68 -21.14,10.82 -43.1,19.9 -65.43,27.77 -22.28,8.13 -45.29,14.01 -68.49,19.08 -23.26,4.86 -46.88,8.28 -70.87,9.56"
         style="fill:#33535f;fill-opacity:1;fill-rule:nonzero;stroke:none"
         id="path124" /><path
         d="m 3589.61,3105.06 c -17.01,-7.1 -35.77,-9.07 -54.12,-9.3 -18.48,-0.19 -36.82,2.36 -54.81,6.15 -17.95,4.03 -35.41,9.86 -52.21,17.07 -8.44,3.52 -16.51,7.91 -24.62,12.01 -7.89,4.64 -15.69,9.38 -23.17,14.61 8.93,-2.24 17.47,-5.14 26.06,-7.84 l 25.72,-7.77 c 8.66,-2.17 17.01,-5.24 25.7,-7.11 8.54,-2.43 17.13,-4.51 25.79,-6.34 17.22,-3.92 34.61,-6.98 52.16,-9.14 17.59,-1.9 35.3,-3.32 53.5,-2.34"
         style="fill:#33535f;fill-opacity:1;fill-rule:nonzero;stroke:none"
         id="path126" /><path
         d="m 3023.9,2996.7 c -10.98,8.4 -19.62,19.6 -26.95,31.27 -7.41,11.72 -13.15,24.35 -18.14,37.19 -4.94,12.89 -8.6,26.19 -11.48,39.62 -1.39,6.72 -2.36,13.53 -3.39,20.29 -0.52,6.88 -1.35,13.67 -1.54,20.53 4.39,-13.03 8.43,-25.96 12.48,-38.83 4.35,-12.78 8.31,-25.61 13.27,-38.06 4.67,-12.55 9.83,-24.91 15.61,-36.99 5.99,-11.94 12.01,-24 20.14,-35.02"
         style="fill:#33535f;fill-opacity:1;fill-rule:nonzero;stroke:none"
         id="path128" /><path
         d="M 3784.31,1157.61 H 2629.02 c -37.03,0 -68.12,27.88 -72.14,64.69 l -64.13,586 c -4.69,42.96 28.95,80.48 72.16,80.48 h 1283.51 c 43.21,0 76.85,-37.52 72.16,-80.48 l -64.12,-586 c -4.03,-36.81 -35.12,-64.69 -72.15,-64.69"
         style="fill:#33535f;fill-opacity:1;fill-rule:nonzero;stroke:none"
         id="path130" /><path
         d="m 3917.98,1836.75 c -8.82,29.79 -36.32,52.03 -69.56,52.03 H 2564.91 c -33.24,0 -60.74,-22.24 -69.56,-52.03 h 1422.63"
         style="fill:#17282f;fill-opacity:1;fill-rule:nonzero;stroke:none"
         id="path132" /><path
         d="m 3269.69,1490.04 c 0,-34.81 -28.23,-63.02 -63.03,-63.02 -34.8,0 -63.02,28.21 -63.02,63.02 0,34.8 28.22,63.02 63.02,63.02 34.8,0 63.03,-28.22 63.03,-63.02"
         style="fill:#dadbd8;fill-opacity:1;fill-rule:nonzero;stroke:none"
         id="path134" /><path
         d="m 3113.95,3475.85 h -646 v 366.54 h 646 v -366.54"
         style="fill:#5d87cd;fill-opacity:1;fill-rule:nonzero;stroke:none"
         id="path136" /><path
         d="m 2887.69,3664.25 c 0,-53.42 -43.31,-96.74 -96.74,-96.74 -53.43,0 -96.74,43.32 -96.74,96.74 0,53.43 43.31,96.75 96.74,96.75 53.43,0 96.74,-43.32 96.74,-96.75"
         style="fill:#2252a6;fill-opacity:1;fill-rule:nonzero;stroke:none"
         id="path138" /><path
         d="m 2773.54,3685.01 v -45.13 c 0,-7.89 9.05,-12.36 15.31,-7.56 l 29.99,23 c 5.02,3.86 4.95,11.45 -0.15,15.21 l -29.98,22.14 c -6.28,4.64 -15.17,0.16 -15.17,-7.66"
         style="fill:#ededeb;fill-opacity:1;fill-rule:nonzero;stroke:none"
         id="path140" /><path
         d="m 3050.36,3520.03 h -537.83 c -4.1,0 -7.43,3.32 -7.43,7.43 0,4.1 3.33,7.42 7.43,7.42 h 537.83 c 4.1,0 7.42,-3.32 7.42,-7.42 0,-4.11 -3.32,-7.43 -7.42,-7.43"
         style="fill:#2252a6;fill-opacity:1;fill-rule:nonzero;stroke:none"
         id="path142" /><path
         d="M 3050.36,3534.88 H 2675.5 v -14.85 h 374.86 c 4.1,0 7.42,3.33 7.42,7.43 0,4.1 -3.32,7.42 -7.42,7.42"
         style="fill:#ededeb;fill-opacity:1;fill-rule:nonzero;stroke:none"
         id="path144" /><path
         d="m 2674.7,3534.88 h -162.17 c -4.1,0 -7.43,-3.32 -7.43,-7.42 0,-4.1 3.33,-7.43 7.43,-7.43 h 162.17 v 14.85"
         style="fill:#2252a6;fill-opacity:1;fill-rule:nonzero;stroke:none"
         id="path146" /><path
         d="m 2694.21,3527.46 c 0,-10.22 -8.29,-18.5 -18.51,-18.5 -10.21,0 -18.5,8.28 -18.5,18.5 0,10.22 8.29,18.5 18.5,18.5 10.22,0 18.51,-8.28 18.51,-18.5"
         style="fill:#2252a6;fill-opacity:1;fill-rule:nonzero;stroke:none"
         id="path148" /><path
         d="m 2684.51,3527.46 c 0,-4.87 -3.94,-8.81 -8.81,-8.81 -4.86,0 -8.81,3.94 -8.81,8.81 0,4.86 3.95,8.81 8.81,8.81 4.87,0 8.81,-3.95 8.81,-8.81"
         style="fill:#7da6dd;fill-opacity:1;fill-rule:nonzero;stroke:none"
         id="path150" /><path
         d="m 3594.23,1587.98 v -210.32 c 0,-18.18 14.73,-32.92 32.92,-32.92 h 382.53 c 7.22,0 14.25,-2.38 19.99,-6.77 l 84.01,-64.23 c 21.66,-16.55 52.91,-1.11 52.91,26.15 v 44.85 154.28 88.96 c 0,18.17 -14.73,32.92 -32.92,32.92 h -506.52 c -18.19,0 -32.92,-14.75 -32.92,-32.92"
         style="fill:#5d87cd;fill-opacity:1;fill-rule:nonzero;stroke:none"
         id="path152" /><path
         d="m 3814.58,1478.66 c 0,-12.11 -9.81,-21.92 -21.92,-21.92 -12.11,0 -21.93,9.81 -21.93,21.92 0,12.11 9.82,21.93 21.93,21.93 12.11,0 21.92,-9.82 21.92,-21.93"
         style="fill:#ededeb;fill-opacity:1;fill-rule:nonzero;stroke:none"
         id="path154" /><path
         d="m 3909.82,1478.66 c 0,-12.11 -9.81,-21.92 -21.92,-21.92 -12.11,0 -21.92,9.81 -21.92,21.92 0,12.11 9.81,21.93 21.92,21.93 12.11,0 21.92,-9.82 21.92,-21.93"
         style="fill:#ededeb;fill-opacity:1;fill-rule:nonzero;stroke:none"
         id="path156" /><path
         d="m 4005.07,1478.66 c 0,-12.11 -9.82,-21.92 -21.93,-21.92 -12.1,0 -21.92,9.81 -21.92,21.92 0,12.11 9.82,21.93 21.92,21.93 12.11,0 21.93,-9.82 21.93,-21.93"
         style="fill:#ededeb;fill-opacity:1;fill-rule:nonzero;stroke:none"
         id="path158" /><path
         d="m 4386.57,3246.37 v -218.33 c 0,-15.97 -12.95,-28.91 -28.91,-28.91 h -433.74 c -6.35,0 -12.52,-2.09 -17.56,-5.95 l -91.54,-69.98 c -19.02,-14.54 -46.47,-0.97 -46.47,22.97 v 52.96 154.28 92.96 c 0,15.96 12.95,28.91 28.92,28.91 h 560.39 c 15.96,0 28.91,-12.95 28.91,-28.91"
         style="fill:#5d87cd;fill-opacity:1;fill-rule:nonzero;stroke:none"
         id="path160" /><path
         d="m 3937.19,3138.24 c 0,-31.36 -25.42,-56.78 -56.78,-56.78 -31.36,0 -56.78,25.42 -56.78,56.78 0,31.35 25.42,56.77 56.78,56.77 31.36,0 56.78,-25.42 56.78,-56.77"
         style="fill:#3061b6;fill-opacity:1;fill-rule:nonzero;stroke:none"
         id="path162" /><path
         d="m 3999.54,3156.38 9.37,27.6 h 15.11 l -7.44,-27.6 z m -21.24,0 9.37,27.6 h 15.11 l -7.44,-27.6 h -17.04"
         style="fill:#ffffff;fill-opacity:1;fill-rule:nonzero;stroke:none"
         id="path164" /><path
         d="m 4282.99,3086.94 9.36,27.61 h 15.12 l -7.44,-27.61 z m -21.24,0 9.36,27.61 h 15.12 l -7.44,-27.61 h -17.04"
         style="fill:#ffffff;fill-opacity:1;fill-rule:nonzero;stroke:none"
         id="path166" /><path
         d="m 4327.68,3161.45 h -293.15 v 13.08 h 293.15 v -13.08"
         style="fill:#2252a6;fill-opacity:1;fill-rule:nonzero;stroke:none"
         id="path168" /><path
         d="M 4311.34,3129.65 H 3978.3 v 13.09 h 333.04 v -13.09"
         style="fill:#2252a6;fill-opacity:1;fill-rule:nonzero;stroke:none"
         id="path170" /><path
         d="m 4252.8,3097.86 h -274.5 v 13.08 h 274.5 v -13.08"
         style="fill:#2252a6;fill-opacity:1;fill-rule:nonzero;stroke:none"
         id="path172" /><path
         d="m 2579.34,2339.88 h -716.07 v 406.3 h 716.07 v -406.3"
         style="fill:#5d87cd;fill-opacity:1;fill-rule:nonzero;stroke:none"
         id="path174" /><path
         d="m 2540.05,2378.06 h -643.02 v 331.72 h 643.02 v -331.72"
         style="fill:#3061b6;fill-opacity:1;fill-rule:nonzero;stroke:none"
         id="path176" /><path
         d="m 1897.03,2378.06 182.21,244.56 c 19.81,26.59 59.57,26.79 79.66,0.41 l 133.73,-175.69 73.68,69.3 c 21.62,20.32 56.1,17.38 73.97,-6.3 l 99.77,-132.28 h -643.02"
         style="fill:#2252a6;fill-opacity:1;fill-rule:nonzero;stroke:none"
         id="path178" /><path
         d="m 2351.51,2608.05 c 0,-29.29 -23.74,-53.04 -53.04,-53.04 -29.29,0 -53.04,23.75 -53.04,53.04 0,29.3 23.75,53.04 53.04,53.04 29.3,0 53.04,-23.74 53.04,-53.04"
         style="fill:#ffffff;fill-opacity:1;fill-rule:nonzero;stroke:none"
         id="path180" /></g></g></svg>
